<?xml version="1.0" encoding="UTF-8" standalone="no"?>
<svg
   version="1.1"
   width="500"
   height="500"
   viewBox="0 0 500 500"
   id="svg14"
   sodipodi:docname="lazulite-logo-just-icon.svg"
   inkscape:version="1.4.3 (0d15f75, 2025-12-25)"
   xmlns:inkscape="http://www.inkscape.org/namespaces/inkscape"
   xmlns:sodipodi="http://sodipodi.sourceforge.net/DTD/sodipodi-0.dtd"
   xmlns="http://www.w3.org/2000/svg"
   xmlns:svg="http://www.w3.org/2000/svg">
  <defs
     id="defs14" />
  <sodipodi:namedview
     id="namedview14"
     pagecolor="#ffffff"
     bordercolor="#000000"
     borderopacity="0.25"
     inkscape:showpageshadow="2"
     inkscape:pageopacity="0.0"
     inkscape:pagecheckerboard="0"
     inkscape:deskcolor="#d1d1d1"
     inkscape:zoom="0.67422507"
     inkscape:cx="256.59087"
     inkscape:cy="282.5466"
     inkscape:window-width="1441"
     inkscape:window-height="910"
     inkscape:window-x="55"
     inkscape:window-y="29"
     inkscape:window-maximized="1"
     inkscape:current-layer="svg11" />
  <g
     transform="matrix(1,0,0,1,-0.32117459753214916,37.67206477732793)"
     id="g13">
    <svg
       viewBox="0 0 290 247"
       data-background-color="#282634"
       preserveAspectRatio="xMidYMid meet"
       height="425"
       width="500"
       version="1.1"
       id="svg13">
      <g
         id="tight-bounds"
         transform="matrix(1,0,0,1,0.18628126656864197,-0.09999999999999432)">
        <svg
           viewBox="0 0 289.6274374668627 247.2"
           height="247.2"
           width="289.6274374668627"
           version="1.1"
           id="svg12">
          <g
             id="g12">
            <svg
               viewBox="0 0 395.52 337.58039243497603"
               height="247.2"
               width="289.6274374668627"
               version="1.1"
               id="svg11">
              <g
                 transform="matrix(1.7722807,0,0,1.7722807,6.3752973,-24.720154)"
                 id="g10">
                <svg
                   viewBox="0 0 217.96838 217.96838"
                   height="217.96838"
                   width="217.96838"
                   version="1.1"
                   id="svg10">
                  <g
                     id="g6">
                    <svg
                       version="1.1"
                       id="svg6"
                       width="100%"
                       height="100%" />
                  </g>
                  <g
                     id="icon-0">
                    <svg
                       viewBox="0 0 217.96838 217.96838"
                       height="217.96838"
                       width="217.96838"
                       version="1.1"
                       id="svg9">
                      <g
                         id="g7">
                        <path
                           transform="scale(2.17968)"
                           d="M 30,100 C 13.431,100 0,86.569 0,70 V 30 C 0,13.431 13.431,0 30,0 h 40 c 16.569,0 30,13.431 30,30 v 40 c 0,16.569 -13.431,30 -30,30 z"
                           fill="#f0f0f0"
                           fill-rule="nonzero"
                           stroke="none"
                           stroke-width="1"
                           stroke-linecap="butt"
                           stroke-linejoin="miter"
                           stroke-miterlimit="10"
                           stroke-dasharray="none"
                           stroke-dashoffset="0"
                           font-family="none"
                           font-weight="none"
                           font-size="none"
                           text-anchor="none"
                           style="mix-blend-mode:normal"
                           data-fill-palette-color="accent"
                           id="path6" />
                      </g>
                      <g
                         transform="translate(55.9986,43.593676)"
                         id="g9">
                        <svg
                           viewBox="0 0 105.97118 130.78103"
                           height="130.78102"
                           width="105.97118"
                           version="1.1"
                           id="svg8">
                          <g
                             id="g8">
                            <svg
                               data-name="Layer 1"
                               viewBox="11.148966 2.06 77.691061 95.88"
                               x="0"
                               y="0"
                               height="130.78102"
                               width="105.97118"
                               class="icon-z$-0"
                               data-fill-palette-color="quaternary"
                               id="z$-0"
                               version="1.1">
                              <path
                                 d="M 22.37,97.94 H 60.7 A 11.45,11.45 0 0 0 71.92,86.34 V 75 a 11.38,11.38 0 0 1 -8.61,0 v 6.5 a 0.73,0.73 0 0 1 -0.73,0.73 H 20.48 A 0.73,0.73 0 0 1 19.75,81.5 V 18.6 a 0.73,0.73 0 0 1 0.73,-0.73 h 42.11 a 0.73,0.73 0 0 1 0.73,0.73 v 7.61 a 39.14,39.14 0 0 1 8.61,0 V 13.65 A 11.45,11.45 0 0 0 60.7,2.06 H 22.37 A 11.45,11.45 0 0 0 11.15,13.66 V 86.35 A 11.45,11.45 0 0 0 22.37,97.94 Z M 38.31,87.26 h 6.44 a 2.81,2.81 0 1 1 0,5.62 h -6.44 a 2.81,2.81 0 1 1 0,-5.62 z m 35.2,-31.67 a 11.27,11.27 0 0 0 -11.73,0 3.34,3.34 0 0 1 -4.14,-0.41 L 57.46,55 a 3.39,3.39 0 0 1 0.54,-5.26 18.27,18.27 0 0 1 19.36,0 3.39,3.39 0 0 1 0.49,5.26 l -0.19,0.19 a 3.34,3.34 0 0 1 -4.14,0.4 z M 67.65,33 a 32,32 0 0 1 19.91,6.88 3.46,3.46 0 0 1 0.28,5.12 v 0 a 3.45,3.45 0 0 1 -4.57,0.29 25.43,25.43 0 0 0 -31.22,0 A 3.4640186,3.4640186 0 0 1 47.76,39.85 32,32 0 0 1 67.65,33 Z m 3.06,28.46 a 4.32,4.32 0 1 1 -6.12,0 4.32,4.32 0 0 1 6.12,-0.03 z"
                                 fill="#282634"
                                 data-fill-palette-color="quaternary"
                                 id="path7" />
                            </svg>
                          </g>
                        </svg>
                      </g>
                    </svg>
                  </g>
                </svg>
              </g>
              <g
                 id="g11" />
            </svg>
          </g>
          <defs
             id="defs12" />
        </svg>
        <rect
           width="289.6274374668627"
           height="247.2"
           fill="none"
           stroke="none"
           visibility="hidden"
           id="rect12" />
      </g>
    </svg>
  </g>
</svg>
